<svg width="50" height="50" viewBox="0 0 50 50" fill="none" xmlns="http://www.w3.org/2000/svg">
<circle cx="25" cy="25" r="25" fill="#FFC9BD"/>
<path d="M31.6758 28.1291L30.7248 17.5739L20.1647 18.4702C20.0534 18.4649 19.9423 18.4836 19.8389 18.525C19.7354 18.5664 19.6421 18.6296 19.5652 18.7102C19.4883 18.7908 19.4296 18.887 19.3931 18.9923C19.3566 19.0976 19.3431 19.2095 19.3536 19.3204C19.3641 19.4313 19.3984 19.5387 19.454 19.6353C19.5096 19.7318 19.5853 19.8153 19.676 19.88C19.7666 19.9448 19.8702 19.9893 19.9795 20.0106C20.0889 20.0318 20.2016 20.0293 20.3099 20.0033L28.2242 19.344L18.6602 30.7419C18.5276 30.8999 18.4632 31.1041 18.4812 31.3096C18.4992 31.5151 18.598 31.7051 18.7561 31.8376C18.9141 31.9702 19.1183 32.0346 19.3238 32.0167C19.5293 31.9987 19.7192 31.8998 19.8518 31.7418L29.4158 20.3439L30.1408 28.2524C30.1595 28.4579 30.2591 28.6476 30.4177 28.7797C30.5763 28.9118 30.7808 28.9755 30.9864 28.9568C31.1919 28.9381 31.3816 28.8385 31.5137 28.6799C31.6458 28.5214 31.7095 28.3168 31.6908 28.1113L31.6758 28.1291Z" fill="white"/>
</svg>
