<svg width="24" height="24" viewBox="0 0 24 24" fill="none" xmlns="http://www.w3.org/2000/svg">
<path d="M13.0002 6H14.0002V5C14.0002 4.73478 13.8948 4.48043 13.7073 4.29289C13.5198 4.10536 13.2654 4 13.0002 4H10.0002C9.73499 4 9.48063 4.10536 9.2931 4.29289C9.10556 4.48043 9.0002 4.73478 9.0002 5V6H10.0002V8.072L4.2852 17.97C4.10285 18.2735 4.00435 18.62 3.99975 18.974C3.99516 19.3281 4.08464 19.677 4.25905 19.9852C4.43346 20.2933 4.68655 20.5496 4.99246 20.7279C5.29837 20.9062 5.64613 21.0001 6.0002 21H17.0002C17.3543 21.0001 17.702 20.9062 18.008 20.7279C18.3139 20.5496 18.567 20.2933 18.7414 19.9852C18.9158 19.677 19.0053 19.3281 19.0007 18.974C18.9961 18.62 18.8976 18.2735 18.7152 17.97L13.0002 8.072V6ZM6.0002 22C5.4601 22.0001 4.92999 21.8544 4.4658 21.5783C4.00162 21.3022 3.62058 20.9059 3.36292 20.4312C3.10525 19.9565 2.98051 19.4211 3.00186 18.8814C3.0232 18.3417 3.18985 17.8178 3.4842 17.365L9.0002 7.811V7C8.73499 7 8.48063 6.89464 8.2931 6.70711C8.10556 6.51957 8.0002 6.26522 8.0002 6V5C8.0002 4.46957 8.21092 3.96086 8.58599 3.58579C8.96106 3.21071 9.46977 3 10.0002 3H13.0002C13.5306 3 14.0393 3.21071 14.4144 3.58579C14.7895 3.96086 15.0002 4.46957 15.0002 5V6C15.0002 6.26522 14.8948 6.51957 14.7073 6.70711C14.5198 6.89464 14.2654 7 14.0002 7V7.811L19.5162 17.365C19.8106 17.8178 19.9772 18.3417 19.9986 18.8814C20.0199 19.4211 19.8952 19.9565 19.6375 20.4312C19.3798 20.9059 18.9988 21.3022 18.5346 21.5783C18.0704 21.8544 17.5403 22.0001 17.0002 22H6.0002Z" fill="#FF9881"/>
</svg>
