<svg width="24" height="24" viewBox="0 0 24 24" fill="none" xmlns="http://www.w3.org/2000/svg">
<path d="M1.79299 3.457L2.49999 2.75L19.25 19.5L18.543 20.207L15.38 17.044L11.5 20.924L3.53799 12.962C3.04976 12.4751 2.66255 11.8965 2.39861 11.2595C2.13467 10.6224 1.9992 9.93954 1.99999 9.25C1.99999 7.715 2.65899 6.334 3.70999 5.374L1.79199 3.457H1.79299ZM4.24299 12.253L11.5 19.509L14.672 16.336L4.41699 6.082C3.97071 6.48023 3.61374 6.96838 3.36952 7.51438C3.1253 8.06038 2.99937 8.65187 2.99999 9.25C2.99922 9.80769 3.10873 10.36 3.32222 10.8752C3.53572 11.3904 3.84898 11.8583 4.24399 12.252L4.24299 12.253ZM18.756 12.253C19.1843 11.8245 19.5161 11.3094 19.7291 10.7423C19.9421 10.1751 20.0314 9.5689 19.9909 8.9644C19.9505 8.35989 19.7812 7.77102 19.4946 7.23728C19.2079 6.70353 18.8104 6.23724 18.3288 5.86968C17.8472 5.50211 17.2925 5.24177 16.7021 5.10611C16.1116 4.97044 15.4989 4.96259 14.9052 5.08308C14.3114 5.20357 13.7503 5.44962 13.2594 5.80472C12.7685 6.15982 12.3592 6.61577 12.059 7.142H10.941C10.5694 6.49109 10.0322 5.95007 9.38399 5.57387C8.73574 5.19767 7.9995 4.99968 7.24999 5L6.27599 5.112L5.47299 4.308C6.04307 4.1034 6.64431 3.99919 7.24999 4C8.99799 4 10.546 4.854 11.5 6.167C11.9253 5.58072 12.4673 5.0888 13.092 4.72215C13.7166 4.35551 14.4104 4.12209 15.1296 4.03656C15.8489 3.95104 16.578 4.01526 17.2712 4.22519C17.9644 4.43513 18.6067 4.78623 19.1576 5.25642C19.7086 5.7266 20.1563 6.30571 20.4725 6.9573C20.7888 7.6089 20.9669 8.31889 20.9954 9.04263C21.024 9.76637 20.9026 10.4882 20.6387 11.1627C20.3748 11.8372 19.9741 12.4498 19.462 12.962L16.794 15.63L16.086 14.922L18.756 12.252V12.253Z" fill="#FF9881"/>
</svg>
