<svg width="24" height="24" viewBox="0 0 24 24" fill="none" xmlns="http://www.w3.org/2000/svg">
<path d="M11 21.9998V19.9998H12V21.9998H11ZM11 17.4998C11 12.9998 16 11.4998 16 8.49985C16.002 7.34836 15.5625 6.23991 14.772 5.40265C13.9815 4.56539 12.9 4.06303 11.7503 3.99897C10.6006 3.9349 9.47011 4.31401 8.59147 5.05826C7.71282 5.80251 7.15291 6.85527 7.02697 7.99985H6.02197C6.14855 6.58865 6.81485 5.28075 7.88201 4.34872C8.94916 3.41669 10.3348 2.93245 11.7502 2.99691C13.1656 3.06138 14.5015 3.66958 15.4795 4.69475C16.4575 5.71993 17.0022 7.08299 17 8.49985C17 11.9998 12 12.9998 12 17.4998V17.9998H11V17.4998Z" fill="#FF9881"/>
</svg>
