<svg width="40" height="40" viewBox="0 0 40 40" fill="none" xmlns="http://www.w3.org/2000/svg">
<path d="M20 36C17.8333 36 15.7604 35.5781 13.7812 34.7344C11.8021 33.8906 10.099 32.7552 8.67188 31.3281C7.24479 29.901 6.10938 28.1979 5.26562 26.2188C4.42188 24.2396 4 22.1667 4 20C4 17.8333 4.42188 15.7604 5.26562 13.7812C6.10938 11.8021 7.24479 10.099 8.67188 8.67188C10.099 7.24479 11.8021 6.10938 13.7812 5.26562C15.7604 4.42188 17.8333 4 20 4C22.1667 4 24.2396 4.42188 26.2188 5.26562C28.1979 6.10938 29.901 7.24479 31.3281 8.67188C32.7552 10.099 33.8906 11.8021 34.7344 13.7812C35.5781 15.7604 36 17.8333 36 20C36 22.1667 35.5781 24.2396 34.7344 26.2188C33.8906 28.1979 32.7552 29.901 31.3281 31.3281C29.901 32.7552 28.1979 33.8906 26.2188 34.7344C24.2396 35.5781 22.1667 36 20 36ZM28 14C28 13.4583 27.8073 12.9896 27.4219 12.5938C27.0365 12.1979 26.5625 12 26 12H14C13.4583 12 12.9896 12.1979 12.5938 12.5938C12.1979 12.9896 12 13.4583 12 14V16H15.5625C16.7708 14.6667 18.25 14 20 14C21.75 14 23.2292 14.6667 24.4375 16H28V14ZM16 20C16 21.1042 16.3906 22.0469 17.1719 22.8281C17.9531 23.6094 18.8958 24 20 24C21.1042 24 22.0469 23.6094 22.8281 22.8281C23.6094 22.0469 24 21.1042 24 20C24 18.8958 23.6094 17.9531 22.8281 17.1719C22.0469 16.3906 21.1042 16 20 16C18.8958 16 17.9531 16.3906 17.1719 17.1719C16.3906 17.9531 16 18.8958 16 20ZM28 18H25.625C25.875 18.6875 26 19.3542 26 20C26 21.6667 25.4167 23.0833 24.25 24.25C23.0833 25.4167 21.6667 26 20 26C18.3333 26 16.9167 25.4167 15.75 24.25C14.5833 23.0833 14 21.6667 14 20C14 19.3542 14.125 18.6875 14.375 18H12V26C12 26.5625 12.1927 27.0365 12.5781 27.4219C12.9635 27.8073 13.4375 28 14 28H26C26.5625 28 27.0365 27.8073 27.4219 27.4219C27.8073 27.0365 28 26.5625 28 26V18Z" fill="#FFC9BD"/>
</svg>
