<svg width="24" height="24" viewBox="0 0 24 24" fill="none" xmlns="http://www.w3.org/2000/svg">
<path d="M14 20.0002C14 20.5306 13.7893 21.0393 13.4142 21.4144C13.0391 21.7895 12.5304 22.0002 12 22.0002H11C10.4696 22.0002 9.96086 21.7895 9.58579 21.4144C9.21071 21.0393 9 20.5306 9 20.0002H10C10 20.2654 10.1054 20.5198 10.2929 20.7073C10.4804 20.8948 10.7348 21.0002 11 21.0002H12C12.2652 21.0002 12.5196 20.8948 12.7071 20.7073C12.8946 20.5198 13 20.2654 13 20.0002H14ZM15 17.0002C15 17.5306 14.7893 18.0393 14.4142 18.4144C14.0391 18.7895 13.5304 19.0002 13 19.0002H10C9.46957 19.0002 8.96086 18.7895 8.58579 18.4144C8.21071 18.0393 8 17.5306 8 17.0002V14.9782C6.81537 14.2212 5.90809 13.1006 5.41425 11.7843C4.9204 10.4681 4.86661 9.02719 5.26093 7.67779C5.65526 6.32838 6.47644 5.1432 7.60133 4.29998C8.72622 3.45676 10.0942 3.00098 11.5 3.00098C12.9058 3.00098 14.2738 3.45676 15.3987 4.29998C16.5236 5.1432 17.3447 6.32838 17.7391 7.67779C18.1334 9.02719 18.0796 10.4681 17.5858 11.7843C17.0919 13.1006 16.1846 14.2212 15 14.9782V17.0002ZM9 17.0002C9 17.2654 9.10536 17.5198 9.29289 17.7073C9.48043 17.8948 9.73478 18.0002 10 18.0002H13C13.2652 18.0002 13.5196 17.8948 13.7071 17.7073C13.8946 17.5198 14 17.2654 14 17.0002V14.4002C15.1001 13.8388 15.9793 12.9234 16.4959 11.8015C17.0124 10.6796 17.1363 9.4165 16.8476 8.21561C16.5589 7.01471 15.8744 5.94595 14.9043 5.18145C13.9343 4.41695 12.7351 4.00122 11.5 4.00122C10.2649 4.00122 9.06573 4.41695 8.09566 5.18145C7.12558 5.94595 6.44107 7.01471 6.15237 8.21561C5.86366 9.4165 5.98757 10.6796 6.50414 11.8015C7.0207 12.9234 7.89986 13.8388 9 14.4002V17.0002Z" fill="#FF9881"/>
</svg>
